<svg xmlns="http://www.w3.org/2000/svg" viewBox="0 0 64 64">
  <defs>
    <linearGradient id="bg" x1="0" y1="0" x2="1" y2="1">
      <stop offset="0%" stop-color="#ff8fb3"/>
      <stop offset="100%" stop-color="#f2528b"/>
    </linearGradient>
  </defs>
  <rect x="2" y="2" width="60" height="60" rx="19" fill="url(#bg)"/>
  <g transform="translate(32 33)">
    <path d="M0 -17 C 6 -12.5, 6 -5, 0 -1.5 C -6 -5, -6 -12.5, 0 -17" fill="#fff" fill-opacity=".94"/>
    <path d="M0 -17 C 6 -12.5, 6 -5, 0 -1.5 C -6 -5, -6 -12.5, 0 -17" fill="#fff" fill-opacity=".94" transform="rotate(72)"/>
    <path d="M0 -17 C 6 -12.5, 6 -5, 0 -1.5 C -6 -5, -6 -12.5, 0 -17" fill="#fff" fill-opacity=".94" transform="rotate(144)"/>
    <path d="M0 -17 C 6 -12.5, 6 -5, 0 -1.5 C -6 -5, -6 -12.5, 0 -17" fill="#fff" fill-opacity=".94" transform="rotate(216)"/>
    <path d="M0 -17 C 6 -12.5, 6 -5, 0 -1.5 C -6 -5, -6 -12.5, 0 -17" fill="#fff" fill-opacity=".94" transform="rotate(288)"/>
    <circle r="4.2" fill="#ffdf8a"/>
  </g>
</svg>
