<svg xmlns="http://www.w3.org/2000/svg" viewBox="0 0 575 200" role="img" aria-labelledby="title description">
  <title id="title">Mochi</title>
  <desc id="description">Mochi wordmark in rounded pink lettering with a sakura accent.</desc>
  <defs>
    <!-- Letter outlines generated from the bear-days typeface. -->
    <path id="wordmark" d="M215 -18Q207 -23 191 -25Q175 -27 157 -27Q139 -27 122.5 -25.5Q106 -24 97 -24Q81 -23 65 -22Q49 -21 36.5 -17.5Q24 -14 17 -5.5Q10 3 12 20Q22 97 27.5 175Q33 253 36 331Q39 409 42 487Q45 565 50 643Q52 666 66 676.5Q80 687 101 690Q122 693 146 692Q170 691 193 691Q208 691 224 693.5Q240 696 254 695.5Q268 695 278 689Q288 683 291 668Q306 576 338 489Q370 402 405 317Q430 413 458 507Q486 601 513 696Q519 718 540.5 727.5Q562 737 589 740.5Q616 744 644.5 744Q673 744 695 746Q706 747 713 741.5Q720 736 724.5 727.5Q729 719 731 707.5Q733 696 735 685Q754 552 767 419.5Q780 287 790 153Q791 139 792 118Q793 97 792.5 75.5Q792 54 788.5 36.5Q785 19 778 13Q769 6 749 3.5Q729 1 706.5 1Q684 1 661.5 2.5Q639 4 625 4Q612 4 606 15Q600 26 598 43Q596 60 596 82Q596 104 595 126Q592 192 589.5 258Q587 324 586 391Q566 330 548.5 269.5Q531 209 514 148Q512 140 507.5 128Q503 116 497.5 103.5Q492 91 485.5 80.5Q479 70 472 66Q463 61 446 60.5Q429 60 410.5 61.5Q392 63 376.5 67.5Q361 72 357 78Q348 89 337 115Q326 141 314.5 174Q303 207 291 244.5Q279 282 268.5 315.5Q258 349 249.5 376.5Q241 404 236 417Q233 324 231.5 232.5Q230 141 229 48Q229 42 229 32Q229 22 227.5 12.5Q226 3 223 -5.5Q220 -14 215 -18ZM1368 241Q1347 167 1300 111Q1253 55 1193 27Q1133 -1 1067 3Q1001 7 941 53Q884 97 853.5 165Q823 233 817.5 310Q812 387 829 465Q846 543 883 608Q906 647 939.5 675Q973 703 1013 719.5Q1053 736 1097 740.5Q1141 745 1183 736.5Q1225 728 1263 707Q1301 686 1330 652Q1355 622 1368.5 568.5Q1382 515 1385.5 455Q1389 395 1384 337.5Q1379 280 1368 241ZM1041 224Q1062 201 1086.5 200Q1111 199 1134 213Q1157 227 1176 252.5Q1195 278 1204 308Q1213 337 1218 372Q1223 407 1220 440Q1217 473 1204.5 500Q1192 527 1167 541Q1149 551 1126.5 547Q1104 543 1083 530.5Q1062 518 1045.5 499.5Q1029 481 1023 460Q1016 437 1012 404Q1008 371 1009 336.5Q1010 302 1017.5 271.5Q1025 241 1041 224ZM1830 16Q1789 5 1743.5 4Q1698 3 1654 13Q1610 23 1570.5 43Q1531 63 1504 95Q1441 166 1420.5 246.5Q1400 327 1414.5 403.5Q1429 480 1475 547Q1521 614 1591 659.5Q1661 705 1752 723.5Q1843 741 1947 719Q1958 717 1962 706.5Q1966 696 1966 682.5Q1966 669 1963.5 654Q1961 639 1959 627Q1956 610 1954 591Q1952 572 1947.5 556Q1943 540 1934 530Q1925 520 1908 521Q1873 524 1838 528Q1803 532 1768 530Q1708 525 1670 490Q1632 455 1618 405Q1604 355 1615.5 299.5Q1627 244 1667 199Q1685 179 1712 172.5Q1739 166 1769.5 168Q1800 170 1831 179Q1862 188 1886 199Q1909 210 1924.5 197.5Q1940 185 1945 159Q1946 152 1950 140Q1954 128 1957 115.5Q1960 103 1961.5 92Q1963 81 1959 75Q1953 65 1936 56Q1919 47 1899 39Q1879 31 1860 25Q1841 19 1830 16ZM2433 -45Q2426 -45 2415 -45.5Q2404 -46 2392 -46Q2380 -46 2370 -44.5Q2360 -43 2355 -38Q2345 -28 2344 -13.5Q2343 1 2343 15Q2343 80 2345.5 144Q2348 208 2349 273Q2338 272 2326.5 272.5Q2315 273 2304 273Q2280 274 2256.5 275Q2233 276 2209 277H2207Q2208 269 2208 261Q2208 253 2209 249Q2209 205 2208.5 161.5Q2208 118 2209 74Q2209 63 2207.5 51.5Q2206 40 2200 31Q2195 23 2186 19.5Q2177 16 2168 14Q2150 12 2132 12Q2114 12 2095 12Q2081 11 2068 10.5Q2055 10 2041 13Q2027 15 2020 25Q2016 31 2014 43.5Q2012 56 2010.5 70Q2009 84 2008.5 97Q2008 110 2008 117Q2006 162 2006.5 206.5Q2007 251 2007 296Q2007 376 2006 455Q2005 534 1999 614Q1998 629 1997.5 644.5Q1997 660 1995 676Q1995 683 1995 697.5Q1995 712 1999 717Q2004 722 2017.5 725Q2031 728 2037 730Q2063 736 2089.5 739.5Q2116 743 2142 740Q2147 739 2157 738.5Q2167 738 2178 736.5Q2189 735 2198.5 733.5Q2208 732 2212 729Q2219 724 2220 714Q2221 704 2222 695Q2225 634 2223 573Q2221 512 2221 451Q2221 449 2220.5 444.5Q2220 440 2220 438Q2234 440 2248 441Q2262 442 2276 443Q2296 443 2315.5 442.5Q2335 442 2355 441Q2357 445 2357 448Q2357 451 2358 455Q2363 483 2365 511.5Q2367 540 2370 568Q2373 601 2375.5 633.5Q2378 666 2378 698Q2378 703 2377.5 714Q2377 725 2379 729Q2383 736 2394 738Q2419 743 2444 743.5Q2469 744 2495 742Q2507 741 2519.5 743Q2532 745 2544 743Q2550 742 2556 739Q2562 736 2565 731Q2570 721 2570 708.5Q2570 696 2569 684Q2565 634 2560 585Q2555 536 2551 486Q2547 426 2543.5 368Q2540 310 2537 250Q2534 202 2531.5 155.5Q2529 109 2531 61Q2531 54 2532 41Q2533 28 2533 14Q2533 0 2531.5 -12Q2530 -24 2526 -30Q2521 -36 2514 -38Q2507 -40 2499 -41Q2482 -43 2466 -43.5Q2450 -44 2433 -45ZM2806 63Q2806 46 2795 39.5Q2784 33 2768.5 32.5Q2753 32 2734 34.5Q2715 37 2698 37Q2681 37 2662.5 34.5Q2644 32 2629 33Q2614 34 2604.5 40Q2595 46 2596 63Q2602 206 2612 347Q2622 488 2623 631Q2623 637 2622 645Q2621 653 2620.5 660.5Q2620 668 2622 673.5Q2624 679 2630 679Q2672 681 2714 685Q2756 689 2798 699Q2819 704 2827 698Q2835 692 2833 670Q2819 518 2814 367Q2809 216 2806 63Z"/>
    <!-- Bear Days is unicase, so the lowercase proportions are custom lettering. -->
    <g id="mixed-wordmark">
      <path d="M74.85 178.42Q73.33 179.37 70.29 179.75Q67.25 180.13 63.83 180.13Q60.41 180.13 57.27 179.84Q54.14 179.56 52.43 179.56Q49.39 179.37 46.35 179.18Q43.31 178.99 40.94 178.32Q38.56 177.66 37.23 176.05Q35.9 174.43 36.28 171.2Q38.18 156.57 39.23 141.75Q40.27 126.93 40.84 112.11Q41.41 97.29 41.98 82.47Q42.55 67.65 43.5 52.83Q43.88 48.46 46.54 46.46Q49.2 44.47 53.19 43.9Q57.18 43.33 61.74 43.52Q66.3 43.71 70.67 43.71Q73.52 43.71 76.56 43.23Q79.6 42.76 82.26 42.85Q84.92 42.95 86.82 44.09Q88.72 45.23 89.29 48.08Q92.14 65.56 98.22 82.09Q104.3 98.62 110.95 114.77Q115.7 96.53 121.02 78.67Q126.34 60.81 131.47 42.76Q132.61 38.58 136.69 36.78Q140.78 34.97 145.91 34.3Q151.04 33.64 156.46 33.64Q161.87 33.64 166.05 33.26Q168.14 33.07 169.47 34.11Q170.8 35.16 171.66 36.77Q172.51 38.39 172.89 40.57Q173.27 42.76 173.65 44.85Q177.26 70.12 179.73 95.3Q182.2 120.47 184.1 145.93Q184.29 148.59 184.48 152.58Q184.67 156.57 184.57 160.66Q184.48 164.74 183.81 168.06Q183.15 171.39 181.82 172.53Q180.11 173.86 176.31 174.34Q172.51 174.81 168.24 174.81Q163.96 174.81 159.69 174.53Q155.41 174.24 152.75 174.24Q150.28 174.24 149.14 172.15Q148 170.06 147.62 166.83Q147.24 163.6 147.24 159.42Q147.24 155.24 147.05 151.06Q146.48 138.52 146 125.98Q145.53 113.44 145.34 100.71Q141.54 112.3 138.22 123.79Q134.89 135.29 131.66 146.88Q131.28 148.4 130.43 150.68Q129.57 152.96 128.53 155.34Q127.48 157.71 126.25 159.7Q125.01 161.7 123.68 162.46Q121.97 163.41 118.74 163.5Q115.51 163.6 112 163.31Q108.48 163.03 105.53 162.18Q102.59 161.32 101.83 160.18Q100.12 158.09 98.03 153.15Q95.94 148.21 93.75 141.94Q91.57 135.67 89.29 128.55Q87.01 121.42 85.02 115.06Q83.02 108.69 81.41 103.47Q79.79 98.24 78.84 95.77Q78.27 113.44 77.99 130.82Q77.7 148.21 77.51 165.88Q77.51 167.02 77.51 168.92Q77.51 170.82 77.22 172.62Q76.94 174.43 76.37 176.05Q75.8 177.66 74.85 178.42Z"/>
      <path d="M271.49 140.06Q268.44 150.78 261.63 158.91Q254.81 167.03 246.12 171.09Q237.41 175.15 227.84 174.56Q218.28 173.99 209.57 167.31Q201.31 160.94 196.89 151.07Q192.47 141.22 191.67 130.05Q190.87 118.89 193.34 107.58Q195.8 96.27 201.16 86.84Q204.5 81.19 209.36 77.12Q214.22 73.07 220.01 70.67Q225.81 68.28 232.19 67.63Q238.57 66.98 244.66 68.21Q250.75 69.44 256.26 72.49Q261.77 75.53 265.98 80.46Q269.61 84.81 271.56 92.57Q273.52 100.33 274.03 109.03Q274.53 117.72 273.81 126.06Q273.08 134.4 271.49 140.06ZM224.07 142.52Q227.12 145.85 230.67 146Q234.22 146.15 237.56 144.12Q240.89 142.09 243.65 138.39Q246.41 134.69 247.71 130.34Q249.01 126.14 249.74 121.06Q250.47 115.99 250.03 111.2Q249.59 106.42 247.78 102.5Q245.97 98.59 242.34 96.56Q239.74 95.11 236.47 95.69Q233.21 96.27 230.16 98.08Q227.12 99.89 224.73 102.57Q222.34 105.26 221.47 108.3Q220.45 111.64 219.87 116.42Q219.29 121.21 219.44 126.21Q219.58 131.21 220.67 135.63Q221.75 140.06 224.07 142.52Z"/>
      <path d="M342.64 172.68Q336.69 174.28 330.1 174.42Q323.5 174.56 317.12 173.12Q310.74 171.66 305.01 168.76Q299.29 165.87 295.37 161.22Q286.24 150.93 283.26 139.26Q280.29 127.59 282.39 116.49Q284.5 105.4 291.16 95.69Q297.83 85.97 307.99 79.37Q318.13 72.78 331.33 70.17Q344.52 67.56 359.61 70.75Q361.2 71.04 361.78 72.56Q362.36 74.08 362.36 76.04Q362.36 78 362 80.17Q361.63 82.35 361.35 84.09Q360.91 86.55 360.62 89.31Q360.33 92.06 359.68 94.38Q359.02 96.7 357.72 98.15Q356.41 99.6 353.95 99.45Q348.88 99.02 343.8 98.44Q338.73 97.86 333.65 98.15Q324.95 98.88 319.44 103.95Q313.93 109.03 311.9 116.28Q309.87 123.53 311.54 131.57Q313.2 139.62 319 146.15Q321.62 149.05 325.53 149.99Q329.44 150.93 333.87 150.64Q338.29 150.35 342.78 149.05Q347.28 147.74 350.76 146.15Q354.1 144.55 356.34 146.36Q358.59 148.18 359.31 151.94Q359.46 152.96 360.04 154.7Q360.62 156.44 361.06 158.25Q361.49 160.06 361.71 161.66Q361.93 163.25 361.35 164.12Q360.48 165.57 358.01 166.88Q355.55 168.19 352.64 169.34Q349.75 170.5 346.99 171.38Q344.24 172.25 342.64 172.68Z"/>
      <path d="M373 167C371 132 370 88 371 52C371 42 378 37 390 37C402 37 409 43 409 53L411 91C420 82 431 78 443 80C466 84 479 101 478 126L477 165C477 175 470 180 459 179C447 178 440 173 440 164L441 126C441 115 435 109 427 109C417 109 411 117 411 130L412 166C412 175 405 179 394 179C383 178 374 174 373 167Z"/>
      <path d="M494 99C494 90 501 86 512 86C524 86 530 91 530 100L531 164C531 174 524 178 513 178C502 178 496 173 496 164Z"/>
    </g>
    <g id="sakura">
      <path d="M0 -17C6 -12.5 6 -5 0 -1.5C-6 -5 -6 -12.5 0 -17Z"/>
      <path d="M0 -17C6 -12.5 6 -5 0 -1.5C-6 -5 -6 -12.5 0 -17Z" transform="rotate(72)"/>
      <path d="M0 -17C6 -12.5 6 -5 0 -1.5C-6 -5 -6 -12.5 0 -17Z" transform="rotate(144)"/>
      <path d="M0 -17C6 -12.5 6 -5 0 -1.5C-6 -5 -6 -12.5 0 -17Z" transform="rotate(216)"/>
      <path d="M0 -17C6 -12.5 6 -5 0 -1.5C-6 -5 -6 -12.5 0 -17Z" transform="rotate(288)"/>
    </g>
    <linearGradient id="mochi-pink" x1="75" y1="30" x2="535" y2="185" gradientUnits="userSpaceOnUse">
      <stop stop-color="#ff8fb3"/>
      <stop offset="1" stop-color="#f2528b"/>
    </linearGradient>
    <clipPath id="wordmark-clip">
      <use href="#mixed-wordmark"/>
    </clipPath>
  </defs>

  <g transform="translate(7 9)">
    <use href="#mixed-wordmark" fill="#bda5aa" stroke="#fff" stroke-width="9" stroke-linejoin="round" paint-order="stroke fill"/>
  </g>
  <use href="#mixed-wordmark" fill="url(#mochi-pink)" stroke="#fff" stroke-width="9" stroke-linejoin="round" paint-order="stroke fill"/>

  <g clip-path="url(#wordmark-clip)" pointer-events="none">
    <path d="M10 54C96 19 169 56 247 45C326 34 384 15 462 45C517 66 558 57 600 38V83C548 96 509 93 460 76C382 49 319 79 250 81C163 84 101 50 10 92Z" fill="#fff" opacity=".15"/>
    <path d="M5 155C90 184 151 163 222 151C310 136 387 173 463 154C518 141 566 152 608 171V211H5Z" fill="#ffcad9" opacity=".18"/>
  </g>

  <g transform="translate(7 8)">
    <use href="#sakura" transform="translate(514 58) scale(1.35)" fill="#bda5aa" stroke="#fff" stroke-width="4.5" stroke-linejoin="round" paint-order="stroke fill"/>
  </g>
  <use href="#sakura" transform="translate(514 58) scale(1.35)" fill="url(#mochi-pink)"/>
  <circle cx="514" cy="58" r="4.2" fill="#ffdf8a"/>
</svg>
